<svg width="24" height="24" viewBox="0 0 24 24" fill="none" xmlns="http://www.w3.org/2000/svg">
<g clip-path="url(#clip0_17_576)">
<path d="M24 12C24 9.7 23.9 7.6 23.5 6.4C23.1 5 22.6 3.7 21.4 2.5C19.9 1.1 18.6 0.7 16.6 0.3C15.2 0.1 13.5 0 12.5 0C12.2 0 11.9 0 11.6 0C10.5 0 8.9 0.1 7.4 0.3C5.4 0.7 4 1.2 2.6 2.5C1.3 3.7 0.9 5 0.5 6.4C0.1 7.6 0 9.7 0 12C0 14.3 0.1 16.4 0.5 17.6C0.9 19 1.4 20.3 2.6 21.5C4.1 22.9 5.4 23.3 7.4 23.7C9 24 11 24 12 24C13 24 15 24 16.7 23.7C18.6 23.3 20 22.9 21.5 21.5C22.7 20.4 23.2 19.1 23.6 17.6C23.9 16.4 24 14.3 24 12Z" fill="#379DF1"/>
<path d="M13.8 12.0001L17 15.2001L12.8 19.4001H11.3V14.4001L8 17.7001L7 16.7001L11.3 12.4001V11.7001L7 7.3001L8 6.3001L11.3 9.6001V4.6001H12.8L17 8.8001L13.8 12.0001ZM12.8 13.1001V17.3001L14.9 15.2001L12.8 13.1001ZM12.8 10.9001L14.9 8.8001L12.8 6.7001V10.9001Z" fill="white"/>
</g>
<defs>
<clipPath id="clip0_17_576">
<rect width="24" height="24" fill="white"/>
</clipPath>
</defs>
</svg>
