<svg width="28" height="28" viewBox="0 0 28 28" fill="none" xmlns="http://www.w3.org/2000/svg">
<path fill-rule="evenodd" clip-rule="evenodd" d="M14.0059 0.00805664C21.7366 0.00805664 28.006 6.27747 28.006 14.0081C28.006 21.7388 21.7366 28.0082 14.0059 28.0082C6.27527 28.0082 0.00585938 21.7388 0.00585938 14.0081C0.00585938 6.27747 6.27527 0.00805664 14.0059 0.00805664ZM11.0987 18.5555L7.67109 15.1251C7.08715 14.5408 7.08703 13.588 7.67109 13.0038C8.25527 12.4198 9.21231 12.4234 9.79224 13.0038L12.2087 15.4221L18.2199 9.41091C18.8041 8.82673 19.757 8.82673 20.341 9.41091C20.9252 9.99497 20.9244 10.9487 20.341 11.5321L13.2675 18.6056C12.6842 19.1889 11.7304 19.1897 11.1464 18.6056C11.13 18.5891 11.1141 18.5725 11.0987 18.5555Z" fill="white"/>
</svg>
