<svg width="19" height="18" viewBox="0 0 19 18" fill="none" xmlns="http://www.w3.org/2000/svg">
<path d="M8.78301 1.16737L1.69968 6.1257C1.36552 6.35961 1.1665 6.74185 1.1665 7.14974V16.4989C1.1665 16.9592 1.5396 17.3323 1.99984 17.3323H4.9165C5.37674 17.3323 5.74984 16.9592 5.74984 16.4989V12.7489C5.74984 10.6779 7.42877 8.99892 9.49984 8.99892C11.5709 8.99892 13.2498 10.6779 13.2498 12.7489V16.4989C13.2498 16.9592 13.6229 17.3323 14.0832 17.3323H16.9998C17.4601 17.3323 17.8332 16.9592 17.8332 16.4989V7.14974C17.8332 6.74185 17.6342 6.35961 17.3 6.1257L10.2167 1.16737C9.78627 0.866086 9.21341 0.866087 8.78301 1.16737Z" fill="#2A27BB" stroke="#2A27BB" stroke-width="1.25" stroke-linecap="round" stroke-linejoin="round"/>
</svg>
