<svg width="343" height="343" viewBox="0 0 343 343" fill="none" xmlns="http://www.w3.org/2000/svg">
<circle opacity="0.1" cx="171.5" cy="171.5" r="171" stroke="#FFEA00"/>
<circle opacity="0.3" cx="171.5" cy="171.5" r="141" stroke="#FFEA00"/>
<circle opacity="0.5" cx="171.5" cy="171.5" r="108" stroke="#FFEA00"/>
<circle cx="41" cy="282" r="4" fill="#FF3D00"/>
<circle cx="266" cy="223" r="4" fill="#FF3D00"/>
<circle cx="240" cy="48" r="4" fill="#FF3D00"/>
<circle cx="328" cy="102" r="4" fill="#FF3D00"/>
<circle cx="38" cy="127" r="4" fill="#FF3D00"/>
<circle cx="64" cy="182" r="4" fill="#FF3D00"/>
<rect x="99" y="98" width="145" height="145" rx="72.5" fill="#FFEA00"/>
<path d="M146.914 165.5V154.227H148.648V162.625H148.688L154.492 154.227H156.109V165.5H154.375V157.109H154.336L148.523 165.5H146.914ZM161.672 165.664C159.273 165.664 157.773 164.016 157.773 161.383V161.375C157.773 158.773 159.305 157.125 161.656 157.125C163.766 157.125 165.047 158.484 165.188 160.031L165.195 160.086H163.586L163.57 160.023C163.391 159.219 162.766 158.539 161.664 158.539C160.352 158.539 159.5 159.633 159.5 161.391V161.398C159.5 163.195 160.367 164.25 161.68 164.25C162.719 164.25 163.375 163.648 163.578 162.758L163.594 162.695H165.211L165.203 162.75C165.023 164.398 163.648 165.664 161.672 165.664ZM168.531 161.836H168.234V165.5H166.547V157.281H168.234V160.672H168.531L171.508 157.281H173.5L170.039 161.141L173.641 165.5H171.555L168.531 161.836ZM176.945 165.648C175.305 165.648 174.203 164.641 174.203 163.164V163.148C174.203 161.719 175.312 160.844 177.258 160.727L179.5 160.594V159.977C179.5 159.07 178.906 158.523 177.859 158.523C176.883 158.523 176.281 158.984 176.141 159.641L176.125 159.711H174.531L174.539 159.625C174.656 158.211 175.883 157.125 177.906 157.125C179.914 157.125 181.188 158.188 181.188 159.836V165.5H179.5V164.203H179.461C178.984 165.086 178.039 165.648 176.945 165.648ZM175.906 163.125C175.906 163.844 176.5 164.297 177.406 164.297C178.594 164.297 179.5 163.492 179.5 162.422V161.781L177.484 161.906C176.469 161.969 175.906 162.414 175.906 163.109V163.125ZM189.094 157.281V158.625H186.523V165.5H184.828V158.625H182.258V157.281H189.094ZM190.328 165.5V157.281H192.016V159.82H193.578C195.477 159.82 196.703 160.922 196.703 162.648V162.664C196.703 164.398 195.477 165.5 193.578 165.5H190.328ZM193.414 161.156H192.016V164.164H193.414C194.375 164.164 194.977 163.57 194.977 162.664V162.648C194.977 161.742 194.367 161.156 193.414 161.156ZM131.82 189.242C131.492 189.242 131.141 189.203 130.938 189.164V187.844C131.07 187.875 131.266 187.906 131.492 187.906C132.289 187.906 132.727 187.695 133.008 186.898L133.148 186.508L130.156 178.281H131.984L134.055 184.969H134.109L136.18 178.281H137.961L134.898 186.883C134.289 188.586 133.43 189.242 131.82 189.242ZM142.383 186.664C139.984 186.664 138.484 185.016 138.484 182.383V182.375C138.484 179.773 140.016 178.125 142.367 178.125C144.477 178.125 145.758 179.484 145.898 181.031L145.906 181.086H144.297L144.281 181.023C144.102 180.219 143.477 179.539 142.375 179.539C141.062 179.539 140.211 180.633 140.211 182.391V182.398C140.211 184.195 141.078 185.25 142.391 185.25C143.43 185.25 144.086 184.648 144.289 183.758L144.305 183.695H145.922L145.914 183.75C145.734 185.398 144.359 186.664 142.383 186.664ZM153.336 178.281V179.625H150.766V186.5H149.07V179.625H146.5V178.281H153.336ZM154.57 189.234V178.281H156.258V179.695H156.297C156.789 178.719 157.695 178.125 158.867 178.125C160.961 178.125 162.305 179.766 162.305 182.391V182.398C162.305 185.016 160.953 186.664 158.891 186.664C157.727 186.664 156.781 186.07 156.297 185.117H156.258V189.234H154.57ZM158.43 185.211C159.758 185.211 160.586 184.133 160.586 182.398V182.391C160.586 180.641 159.758 179.57 158.43 179.57C157.148 179.57 156.25 180.68 156.25 182.391V182.398C156.25 184.102 157.156 185.211 158.43 185.211ZM167.289 186.664C164.93 186.664 163.391 185.031 163.391 182.391V182.375C163.391 179.75 164.953 178.125 167.289 178.125C169.625 178.125 171.188 179.742 171.188 182.375V182.391C171.188 185.039 169.641 186.664 167.289 186.664ZM167.297 185.25C168.617 185.25 169.469 184.203 169.469 182.391V182.375C169.469 180.578 168.602 179.539 167.289 179.539C165.984 179.539 165.117 180.578 165.117 182.375V182.391C165.117 184.211 165.977 185.25 167.297 185.25ZM176.305 177.383C174.695 177.383 173.719 176.406 173.719 175.055V175.008H175.047V175.062C175.047 175.742 175.484 176.32 176.312 176.32C177.109 176.32 177.57 175.742 177.57 175.062V175.008H178.906V175.055C178.906 176.406 177.93 177.383 176.305 177.383ZM172.633 186.5V178.281H174.305V184.031H174.383L178.156 178.281H179.82V186.5H178.141V180.727H178.07L174.297 186.5H172.633ZM185.164 186.664C182.766 186.664 181.266 185.016 181.266 182.383V182.375C181.266 179.773 182.797 178.125 185.148 178.125C187.258 178.125 188.539 179.484 188.68 181.031L188.688 181.086H187.078L187.062 181.023C186.883 180.219 186.258 179.539 185.156 179.539C183.844 179.539 182.992 180.633 182.992 182.391V182.398C182.992 184.195 183.859 185.25 185.172 185.25C186.211 185.25 186.867 184.648 187.07 183.758L187.086 183.695H188.703L188.695 183.75C188.516 185.398 187.141 186.664 185.164 186.664ZM196.117 178.281V179.625H193.547V186.5H191.852V179.625H189.281V178.281H196.117ZM197.352 186.5V178.281H201.086C202.688 178.281 203.656 179.086 203.656 180.391V180.406C203.656 181.258 203.047 182.031 202.258 182.18V182.242C203.32 182.383 204.023 183.117 204.023 184.125V184.141C204.023 185.578 202.914 186.5 201.133 186.5H197.352ZM199.023 181.672H200.562C201.516 181.672 201.984 181.32 201.984 180.594V180.578C201.984 179.898 201.547 179.531 200.734 179.531H199.023V181.672ZM199.023 185.25H200.82C201.773 185.25 202.289 184.852 202.289 184.07V184.055C202.289 183.266 201.734 182.898 200.625 182.898H199.023V185.25ZM207.938 186.648C206.297 186.648 205.195 185.641 205.195 184.164V184.148C205.195 182.719 206.305 181.844 208.25 181.727L210.492 181.594V180.977C210.492 180.07 209.898 179.523 208.852 179.523C207.875 179.523 207.273 179.984 207.133 180.641L207.117 180.711H205.523L205.531 180.625C205.648 179.211 206.875 178.125 208.898 178.125C210.906 178.125 212.18 179.188 212.18 180.836V186.5H210.492V185.203H210.453C209.977 186.086 209.031 186.648 207.938 186.648ZM206.898 184.125C206.898 184.844 207.492 185.297 208.398 185.297C209.586 185.297 210.492 184.492 210.492 183.422V182.781L208.477 182.906C207.461 182.969 206.898 183.414 206.898 184.109V184.125Z" fill="#262626"/>
</svg>
