<svg width="343" height="343" viewBox="0 0 343 343" fill="none" xmlns="http://www.w3.org/2000/svg">
<circle opacity="0.1" cx="171.5" cy="171.5" r="171" stroke="#2A27BB"/>
<circle opacity="0.3" cx="171.5" cy="171.5" r="141" stroke="#2A27BB"/>
<circle opacity="0.5" cx="171.5" cy="171.5" r="108" stroke="#2A27BB"/>
<circle cx="41" cy="282" r="4" fill="#FF3D00"/>
<circle cx="266" cy="223" r="4" fill="#FF3D00"/>
<circle cx="240" cy="48" r="4" fill="#FF3D00"/>
<circle cx="328" cy="102" r="4" fill="#FF3D00"/>
<circle cx="38" cy="127" r="4" fill="#FF3D00"/>
<circle cx="64" cy="182" r="4" fill="#FF3D00"/>
<rect x="99" y="98" width="145" height="145" rx="72.5" fill="#2A27BB"/>
<path d="M144.773 165.5V154.227H146.516V162.602H147.398L146.227 163.227L152.383 154.227H154.078V165.5H152.336V157.156H151.445L152.633 156.523L146.469 165.5H144.773ZM160.445 165.664C159.622 165.664 158.911 165.487 158.312 165.133C157.719 164.773 157.26 164.263 156.938 163.602C156.615 162.94 156.453 162.151 156.453 161.234V161.219C156.453 160.318 156.612 159.542 156.93 158.891C157.253 158.24 157.711 157.737 158.305 157.383C158.904 157.029 159.615 156.852 160.438 156.852C161.151 156.852 161.763 156.977 162.273 157.227C162.789 157.471 163.198 157.81 163.5 158.242C163.807 158.669 164 159.156 164.078 159.703L164.086 159.742H162.453L162.445 159.727C162.352 159.31 162.135 158.964 161.797 158.688C161.458 158.406 161.008 158.266 160.445 158.266C159.977 158.266 159.573 158.385 159.234 158.625C158.896 158.859 158.635 159.198 158.453 159.641C158.276 160.083 158.188 160.609 158.188 161.219V161.234C158.188 161.859 158.279 162.396 158.461 162.844C158.643 163.292 158.904 163.638 159.242 163.883C159.581 164.122 159.982 164.242 160.445 164.242C160.977 164.242 161.406 164.125 161.734 163.891C162.068 163.656 162.302 163.31 162.438 162.852L162.453 162.812L164.078 162.805L164.062 162.875C163.964 163.427 163.763 163.911 163.461 164.328C163.159 164.745 162.755 165.073 162.25 165.312C161.75 165.547 161.148 165.664 160.445 165.664ZM168.281 161.75H167.852V165.5H166.148V157.016H167.852V160.484H168.273L171.273 157.016H173.258L169.539 161.102V160.82L173.414 165.5H171.312L168.281 161.75ZM177.266 165.641C176.729 165.641 176.247 165.539 175.82 165.336C175.398 165.128 175.065 164.833 174.82 164.453C174.576 164.073 174.453 163.628 174.453 163.117V163.102C174.453 162.341 174.727 161.747 175.273 161.32C175.826 160.888 176.607 160.641 177.617 160.578L180.75 160.391V161.586L177.852 161.773C177.268 161.81 176.839 161.935 176.562 162.148C176.286 162.357 176.148 162.651 176.148 163.031V163.047C176.148 163.432 176.297 163.737 176.594 163.961C176.891 164.18 177.266 164.289 177.719 164.289C178.141 164.289 178.516 164.206 178.844 164.039C179.177 163.867 179.438 163.638 179.625 163.352C179.812 163.06 179.906 162.732 179.906 162.367V159.695C179.906 159.227 179.76 158.87 179.469 158.625C179.182 158.375 178.755 158.25 178.188 158.25C177.714 158.25 177.326 158.333 177.023 158.5C176.727 158.667 176.529 158.901 176.43 159.203L176.414 159.227H174.781L174.789 159.172C174.857 158.703 175.042 158.297 175.344 157.953C175.651 157.604 176.052 157.333 176.547 157.141C177.047 156.948 177.617 156.852 178.258 156.852C178.971 156.852 179.576 156.966 180.07 157.195C180.57 157.419 180.948 157.745 181.203 158.172C181.464 158.594 181.594 159.102 181.594 159.695V165.5H179.906V164.297H179.781C179.615 164.583 179.406 164.828 179.156 165.031C178.906 165.229 178.622 165.38 178.305 165.484C177.987 165.589 177.641 165.641 177.266 165.641ZM190.477 157.016V158.359H187.805V165.5H186.109V158.359H183.438V157.016H190.477ZM192.367 165.5V157.016H194.07V159.641H195.734C196.719 159.641 197.503 159.906 198.086 160.438C198.669 160.964 198.961 161.672 198.961 162.562V162.578C198.961 163.469 198.669 164.18 198.086 164.711C197.503 165.237 196.719 165.5 195.734 165.5H192.367ZM195.594 160.984H194.07V164.156H195.594C196.104 164.156 196.508 164.013 196.805 163.727C197.102 163.435 197.25 163.052 197.25 162.578V162.562C197.25 162.083 197.099 161.701 196.797 161.414C196.5 161.128 196.099 160.984 195.594 160.984ZM127.984 189.484C127.88 189.484 127.768 189.479 127.648 189.469C127.529 189.464 127.414 189.456 127.305 189.445V188.109C127.388 188.12 127.479 188.128 127.578 188.133C127.682 188.138 127.781 188.141 127.875 188.141C128.271 188.141 128.591 188.047 128.836 187.859C129.081 187.677 129.266 187.372 129.391 186.945L129.516 186.508L126.438 178.016H128.273L130.672 185.664L130.141 184.789H130.789L130.266 185.664L132.656 178.016H134.445L131.289 186.82C131.049 187.497 130.784 188.029 130.492 188.414C130.201 188.805 129.854 189.081 129.453 189.242C129.052 189.404 128.562 189.484 127.984 189.484ZM139.57 186.664C138.747 186.664 138.036 186.487 137.438 186.133C136.844 185.773 136.385 185.263 136.062 184.602C135.74 183.94 135.578 183.151 135.578 182.234V182.219C135.578 181.318 135.737 180.542 136.055 179.891C136.378 179.24 136.836 178.737 137.43 178.383C138.029 178.029 138.74 177.852 139.562 177.852C140.276 177.852 140.888 177.977 141.398 178.227C141.914 178.471 142.323 178.81 142.625 179.242C142.932 179.669 143.125 180.156 143.203 180.703L143.211 180.742H141.578L141.57 180.727C141.477 180.31 141.26 179.964 140.922 179.688C140.583 179.406 140.133 179.266 139.57 179.266C139.102 179.266 138.698 179.385 138.359 179.625C138.021 179.859 137.76 180.198 137.578 180.641C137.401 181.083 137.312 181.609 137.312 182.219V182.234C137.312 182.859 137.404 183.396 137.586 183.844C137.768 184.292 138.029 184.638 138.367 184.883C138.706 185.122 139.107 185.242 139.57 185.242C140.102 185.242 140.531 185.125 140.859 184.891C141.193 184.656 141.427 184.31 141.562 183.852L141.578 183.812L143.203 183.805L143.188 183.875C143.089 184.427 142.888 184.911 142.586 185.328C142.284 185.745 141.88 186.073 141.375 186.312C140.875 186.547 140.273 186.664 139.57 186.664ZM151.258 178.016V179.359H148.586V186.5H146.891V179.359H144.219V178.016H151.258ZM153.156 189.328V178.016H154.852V179.352H154.984C155.146 179.039 155.354 178.773 155.609 178.555C155.87 178.336 156.167 178.167 156.5 178.047C156.833 177.927 157.198 177.867 157.594 177.867C158.307 177.867 158.927 178.049 159.453 178.414C159.979 178.773 160.385 179.281 160.672 179.938C160.964 180.589 161.109 181.359 161.109 182.25V182.266C161.109 183.161 160.966 183.938 160.68 184.594C160.393 185.245 159.987 185.75 159.461 186.109C158.935 186.464 158.312 186.641 157.594 186.641C157.203 186.641 156.839 186.581 156.5 186.461C156.161 186.336 155.862 186.164 155.602 185.945C155.341 185.727 155.135 185.464 154.984 185.156H154.852V189.328H153.156ZM157.109 185.188C157.583 185.188 157.99 185.07 158.328 184.836C158.667 184.602 158.924 184.266 159.102 183.828C159.284 183.391 159.375 182.87 159.375 182.266V182.25C159.375 181.641 159.284 181.117 159.102 180.68C158.924 180.242 158.667 179.906 158.328 179.672C157.99 179.438 157.583 179.32 157.109 179.32C156.641 179.32 156.234 179.44 155.891 179.68C155.547 179.914 155.284 180.25 155.102 180.688C154.919 181.12 154.828 181.641 154.828 182.25V182.266C154.828 182.865 154.919 183.383 155.102 183.82C155.284 184.258 155.547 184.596 155.891 184.836C156.234 185.07 156.641 185.188 157.109 185.188ZM166.891 186.664C166.062 186.664 165.346 186.487 164.742 186.133C164.143 185.779 163.682 185.273 163.359 184.617C163.036 183.956 162.875 183.172 162.875 182.266V182.25C162.875 181.339 163.036 180.555 163.359 179.898C163.688 179.242 164.151 178.737 164.75 178.383C165.354 178.029 166.068 177.852 166.891 177.852C167.719 177.852 168.432 178.029 169.031 178.383C169.63 178.732 170.091 179.237 170.414 179.898C170.742 180.555 170.906 181.339 170.906 182.25V182.266C170.906 183.172 170.742 183.956 170.414 184.617C170.091 185.273 169.63 185.779 169.031 186.133C168.438 186.487 167.724 186.664 166.891 186.664ZM166.891 185.242C167.375 185.242 167.786 185.125 168.125 184.891C168.464 184.651 168.721 184.31 168.898 183.867C169.076 183.424 169.164 182.891 169.164 182.266V182.25C169.164 181.62 169.076 181.083 168.898 180.641C168.721 180.198 168.464 179.859 168.125 179.625C167.786 179.385 167.375 179.266 166.891 179.266C166.406 179.266 165.995 179.385 165.656 179.625C165.318 179.859 165.057 180.198 164.875 180.641C164.698 181.083 164.609 181.62 164.609 182.25V182.266C164.609 182.891 164.698 183.424 164.875 183.867C165.057 184.31 165.318 184.651 165.656 184.891C165.995 185.125 166.406 185.242 166.891 185.242ZM173.07 186.5V178.016H174.758V183.969H175.641L174.492 184.609L178.734 178.016H180.422V186.5H178.734V180.523H177.852L179 179.875L174.758 186.5H173.07ZM176.75 176.844C176.193 176.844 175.706 176.729 175.289 176.5C174.872 176.271 174.547 175.961 174.312 175.57C174.078 175.174 173.961 174.727 173.961 174.227H175.359C175.365 174.648 175.49 175.016 175.734 175.328C175.984 175.641 176.323 175.797 176.75 175.797C177.182 175.797 177.521 175.641 177.766 175.328C178.01 175.016 178.135 174.648 178.141 174.227H179.539C179.539 174.727 179.422 175.174 179.188 175.57C178.953 175.961 178.628 176.271 178.211 176.5C177.794 176.729 177.307 176.844 176.75 176.844ZM186.586 186.664C185.763 186.664 185.052 186.487 184.453 186.133C183.859 185.773 183.401 185.263 183.078 184.602C182.755 183.94 182.594 183.151 182.594 182.234V182.219C182.594 181.318 182.753 180.542 183.07 179.891C183.393 179.24 183.852 178.737 184.445 178.383C185.044 178.029 185.755 177.852 186.578 177.852C187.292 177.852 187.904 177.977 188.414 178.227C188.93 178.471 189.339 178.81 189.641 179.242C189.948 179.669 190.141 180.156 190.219 180.703L190.227 180.742H188.594L188.586 180.727C188.492 180.31 188.276 179.964 187.938 179.688C187.599 179.406 187.148 179.266 186.586 179.266C186.117 179.266 185.714 179.385 185.375 179.625C185.036 179.859 184.776 180.198 184.594 180.641C184.417 181.083 184.328 181.609 184.328 182.219V182.234C184.328 182.859 184.419 183.396 184.602 183.844C184.784 184.292 185.044 184.638 185.383 184.883C185.721 185.122 186.122 185.242 186.586 185.242C187.117 185.242 187.547 185.125 187.875 184.891C188.208 184.656 188.443 184.31 188.578 183.852L188.594 183.812L190.219 183.805L190.203 183.875C190.104 184.427 189.904 184.911 189.602 185.328C189.299 185.745 188.896 186.073 188.391 186.312C187.891 186.547 187.289 186.664 186.586 186.664ZM198.273 178.016V179.359H195.602V186.5H193.906V179.359H191.234V178.016H198.273ZM200.164 186.5V178.016H204.008C204.841 178.016 205.49 178.214 205.953 178.609C206.417 179.005 206.648 179.534 206.648 180.195V180.211C206.648 180.643 206.513 181.034 206.242 181.383C205.971 181.727 205.628 181.94 205.211 182.023V182.148C205.581 182.195 205.901 182.307 206.172 182.484C206.443 182.656 206.651 182.878 206.797 183.148C206.948 183.419 207.023 183.724 207.023 184.062V184.078C207.023 184.802 206.76 185.388 206.234 185.836C205.708 186.279 204.979 186.5 204.047 186.5H200.164ZM201.852 185.25H203.82C204.31 185.25 204.677 185.143 204.922 184.93C205.167 184.711 205.289 184.406 205.289 184.016V184C205.289 183.589 205.148 183.284 204.867 183.086C204.591 182.888 204.172 182.789 203.609 182.789H201.852V185.25ZM201.852 181.562H203.477C203.982 181.562 204.357 181.464 204.602 181.266C204.846 181.068 204.969 180.784 204.969 180.414V180.398C204.969 180.06 204.862 179.786 204.648 179.578C204.44 179.37 204.109 179.266 203.656 179.266H201.852V181.562ZM211.562 186.641C211.026 186.641 210.544 186.539 210.117 186.336C209.695 186.128 209.362 185.833 209.117 185.453C208.872 185.073 208.75 184.628 208.75 184.117V184.102C208.75 183.341 209.023 182.747 209.57 182.32C210.122 181.888 210.904 181.641 211.914 181.578L215.047 181.391V182.586L212.148 182.773C211.565 182.81 211.135 182.935 210.859 183.148C210.583 183.357 210.445 183.651 210.445 184.031V184.047C210.445 184.432 210.594 184.737 210.891 184.961C211.188 185.18 211.562 185.289 212.016 185.289C212.438 185.289 212.812 185.206 213.141 185.039C213.474 184.867 213.734 184.638 213.922 184.352C214.109 184.06 214.203 183.732 214.203 183.367V180.695C214.203 180.227 214.057 179.87 213.766 179.625C213.479 179.375 213.052 179.25 212.484 179.25C212.01 179.25 211.622 179.333 211.32 179.5C211.023 179.667 210.826 179.901 210.727 180.203L210.711 180.227H209.078L209.086 180.172C209.154 179.703 209.339 179.297 209.641 178.953C209.948 178.604 210.349 178.333 210.844 178.141C211.344 177.948 211.914 177.852 212.555 177.852C213.268 177.852 213.872 177.966 214.367 178.195C214.867 178.419 215.245 178.745 215.5 179.172C215.76 179.594 215.891 180.102 215.891 180.695V186.5H214.203V185.297H214.078C213.911 185.583 213.703 185.828 213.453 186.031C213.203 186.229 212.919 186.38 212.602 186.484C212.284 186.589 211.938 186.641 211.562 186.641Z" fill="white"/>
</svg>
